<?xml version="1.0" standalone="no"?><!DOCTYPE svg PUBLIC "-//W3C//DTD SVG 1.1//EN" "http://www.w3.org/Graphics/SVG/1.1/DTD/svg11.dtd"><svg t="1574230607998" class="icon" viewBox="0 0 1024 1024" version="1.1" xmlns="http://www.w3.org/2000/svg" p-id="6588" xmlns:xlink="http://www.w3.org/1999/xlink" width="200" height="200"><defs><style type="text/css"></style></defs><path d="M511.999488 509.316891m-447.230857 0a437.045 437.045 0 1 0 894.461715 0 437.045 437.045 0 1 0-894.461715 0Z" p-id="6589" fill="#1296db"></path><path d="M586.10016 677.04701c2.460028-155.051355 85.894276-214.726479 85.894276-307.053258 0-78.795601-53.925167-179.367157-167.043481-179.367157s-172.486446 96.212272-172.486446 180.093704c0 94.140077 84.754313 153.329131 84.754313 307.291688l85.823668 0C503.041466 678.010965 583.640132 677.04701 586.10016 677.04701zM434.487114 657.345296c0-143.698796-82.120322-198.941981-82.120322-286.806121 0-78.288041 53.275367-160.394037 152.253636-160.394037 98.980315 0 147.488099 86.171592 147.488099 159.714562 0 86.173638-80.962963 143.109372-83.114976 287.825334-2.152013 0-66.043159-0.339738-66.043159-0.339738L434.487114 657.345296zM539.315624 466.250026c-26.530236 11.939937-85.384669-17.294898-85.384669-17.294898-68.951395-41.337477 25.889647 128.910998 25.889647 128.910998s1.965771 53.109592 13.902638 59.745732C593.221348 498.312256 565.847907 454.308043 539.315624 466.250026zM503.499907 598.361927c-8.069793 0-41.85834-101.45467-37.877679-122.68111 26.532283 2.653433 51.140751 12.678764 65.733097 4.718465C572.480978 461.760782 512.786411 598.361927 503.499907 598.361927zM576.614112 699.67845 428.030052 699.67845c-5.860475 0-10.612709 4.750187-10.612709 10.612709 0 5.860475 4.752234 10.610662 10.612709 10.610662l148.583037 0c5.862521 0 10.612709-4.750187 10.612709-10.610662C587.22682 704.428637 582.476633 699.67845 576.614112 699.67845zM438.478008 785.199219c0 0 0 7.093559 0 19.116383 0 12.024871 9.428743 21.773909 21.062711 21.773909l85.572958 0c11.631922 0 21.060665-9.749038 21.060665-21.773909 0-12.022825-1.313925-19.116383-1.313925-19.116383L438.478008 785.199219zM576.614112 742.131331 428.030052 742.131331c-5.860475 0-10.612709 4.750187-10.612709 10.612709 0 5.862521 4.752234 10.612709 10.612709 10.612709l148.583037 0c5.862521 0 10.612709-4.750187 10.612709-10.612709C587.22682 746.881518 582.476633 742.131331 576.614112 742.131331z" p-id="6590" fill="#1296db"></path></svg>