<?xml version="1.0" standalone="no"?><!DOCTYPE svg PUBLIC "-//W3C//DTD SVG 1.1//EN" "http://www.w3.org/Graphics/SVG/1.1/DTD/svg11.dtd"><svg class="icon" width="200px" height="200.00px" viewBox="0 0 1024 1024" version="1.1" xmlns="http://www.w3.org/2000/svg"><path d="M579.358746 660.208423a233.140545 233.140545 0 0 1-66.591489 9.686616c-22.985733 0-45.300116-3.356748-66.559521-9.686616-116.111517-34.494583-201.916393-157.095813-201.916393-303.130342 0-172.824576 120.171584-312.880897 268.475914-312.880897s268.539852 140.05632 268.539852 312.880897c0 146.034529-85.868815 268.635759-201.948363 303.130342z" fill="#5FCEFF" /><path d="M579.358746 660.208423l12.755643 106.105211h-158.662296l12.755643-106.105211a232.756917 232.756917 0 0 0 66.559521 9.686616c22.985733 0 45.300116-3.356748 66.591489-9.686616z" fill="#FF4893" /><path d="M512.767257 692.27336a255.531654 255.531654 0 0 1-72.943736-10.613718c-128.298111-38.116674-217.910499-171.587375-217.910499-324.578364 0-184.864113 130.475202-335.259218 290.854235-335.259218 160.414199 0 290.918173 150.395105 290.918173 335.259218 0 152.975005-89.625176 286.448903-217.952059 324.581561a256.119884 256.119884 0 0 1-72.966114 10.610521z m0-625.697855c-135.698942 0-246.097593 130.318554-246.097593 290.502576 0 133.330037 76.450738 249.160226 185.912697 281.679123 39.040579 11.627136 81.297243 11.627136 120.404958 0 109.48114-32.534882 185.944666-148.365071 185.944666-281.679123-0.003197-160.184022-110.43062-290.502576-246.164728-290.502576z" fill="#4F46A3" /><path d="M592.114389 788.691955h-158.659099a22.378321 22.378321 0 0 1-22.218476-25.047735l12.755643-106.102014c1.470575-12.237745 12.621373-21.144316 24.827149-19.699316 12.244138 1.425819 21.045212 12.340046 19.660953 24.590578l-0.05115 0.45396-9.74416 81.054278h108.202379l-9.744161-81.054278-0.038363-0.332478a22.378321 22.378321 0 0 1 19.593819-24.849527c12.282501-1.473772 23.398133 7.317711 24.849527 19.593818l0.035166 0.290919 12.749249 106.06365a22.375124 22.375124 0 0 1-22.218476 25.038145z" fill="#4F46A3" /><path d="M480.798227 1012.858793a22.378321 22.378321 0 0 1-22.378321-22.378321c0-30.866098 26.243377-45.312903 43.608954-54.871643 9.085598-4.999956 20.389847-11.224326 20.389847-15.588099 0-4.414923-11.329824-10.648884-20.437801-15.661628-17.346396-9.549149-43.564197-23.979969-43.564197-54.798114 0-30.866098 26.243377-45.312903 43.608954-54.871643 9.085598-4.999956 20.389847-11.224326 20.389847-15.588099a22.378321 22.378321 0 1 1 44.756642 0c0 30.818145-26.214605 45.245768-43.564197 54.798114-9.107977 5.009547-20.437801 11.249902-20.437801 15.661628 0 4.363773 11.307446 10.588143 20.389847 15.588099 17.368774 9.55874 43.612151 24.005545 43.612151 54.871643 0 30.818145-26.214605 45.245768-43.564197 54.798114-9.107977 5.009547-20.437801 11.249902-20.437801 15.661628a22.36873 22.36873 0 0 1-22.371927 22.378321zM512.767257 595.119478c-114.404371 0-207.479005-106.786151-207.479005-238.041397a22.378321 22.378321 0 1 1 44.756642 0c0 106.578352 72.998083 193.284755 162.722363 193.284755a22.378321 22.378321 0 1 1 0 44.756642zM341.921563 296.407255a22.378321 22.378321 0 0 1-21.06759-29.923012c9.181505-25.655147 22.125766-49.123612 38.474727-69.753226a22.378321 22.378321 0 0 1 35.079617 27.797071c-13.311904 16.796528-23.880865 35.987537-31.412769 57.035947a22.391109 22.391109 0 0 1-21.073985 14.84322z" fill="#4F46A3" /></svg>